<?xml version="1.0" encoding="utf-8"?>
<!-- Generator: Adobe Illustrator 15.1.0, SVG Export Plug-In . SVG Version: 6.00 Build 0)  -->
<!DOCTYPE svg PUBLIC "-//W3C//DTD SVG 1.1 Basic//EN" "http://www.w3.org/Graphics/SVG/1.1/DTD/svg11-basic.dtd">
<svg version="1.1" baseProfile="basic" id="Layer_1"
	 xmlns="http://www.w3.org/2000/svg" xmlns:xlink="http://www.w3.org/1999/xlink" x="0px" y="0px" width="595.281px"
	 height="841.891px" style="max-width: 100%;" viewBox="0 0 595.281 841.891" xml:space="preserve">
<g id="dude">
	<path class="body_color1" fill="#F6E3D0" stroke="#000000" stroke-miterlimit="10" d="M460.736,746.256c-8.634-3.142-9.416,4.709-13.345,3.924
		c-2.567-0.517-3.45-0.021-3.758,0.385c-0.104,0.257-0.164,0.4-0.164,0.4s0.002-0.188,0.164-0.4
		c1.025-2.586,6.174-17.174-5.067-24.222c-12.705-7.967-26.486,14.715-26.486,14.715s-2.18,4.779-17.658,2.06
		c-14.52-2.55-17.365-6.769-17.365-6.769s7.556-11.283,10.693-15.991c3.139-4.709,1.568-9.418,1.568-9.418l-0.785-10.987
		c0,0,3.141,0,7.85-2.354c4.709-2.354,5.492-7.063,5.492-7.063l-8.633-17.267c0,0,5.539-6.513,7.85-16.481
		c2.158-9.316,4.22-12.556,4.22-12.556s1.272-0.001,5.198-8.633c3.924-8.633,1.568-21.977,1.568-21.977s0.785-5.492,5.494-21.188
		c4.709-15.697,13.342-29.822,13.342-40.024c0-10.203-4.119-13.538-11.184-29.725c-7.246-16.606-30.41-61.313-39.046-69.945
		c-8.633-8.632-41.006-11.576-41.006-11.576s-1.567-17.266-1.567-22.759s-2.943-7.26-0.588-19.816
		c2.354-12.558,12.752-9.223,12.752-9.223s99.12-6.409,112.405-130.42c0.178-1.659,16.768,9.441,22.21,3.5
		c5.794-6.326,0.735-32.386-7-40.25c-1.5-4.5-14.833,17.208-14.75,14.5C467.113,107.709,366.626,40.91,304.363,40.91
		c-61.342,0-158.475,68.875-157.448,194.286c0.037,4.554-11.025-26.75-17.025,11.25c3.25,32.25,18.254,11.887,18.784,16.279
		c14.572,120.881,111.759,125.267,111.759,125.267s9.417-1.569,11.772,10.987c2.354,12.557,0.765,11.575,0.765,17.068
		c0,5.494-1.569,22.759-1.569,22.759s-33.727,5.689-42.36,14.324c-8.634,8.632-32.177,53.365-37.671,70.633
		c-5.494,17.265-12.557,18.834-12.557,29.037c0,10.202,8.634,24.327,13.343,40.021c4.708,15.697,5.494,21.189,5.494,21.189
		s-4.165,14.424,1.569,21.976c6.258,8.241,7.436,10.008,7.436,10.008s-1.177,3.531,1.982,11.184
		c3.906,9.458,7.849,16.479,7.849,16.479l-8.633,17.268c0,0,0.785,4.709,5.494,7.063c4.709,2.354,7.849,2.354,7.849,2.354
		l-0.785,10.984c0,0-1.57,4.709,1.569,9.418c3.14,4.709,12.341,14.719,12.341,14.719s-7.083,3.531-20.013,5.887
		c-15.461,2.813-17.658-3.532-17.658-3.532s-11.597-22.955-25.31-11.771c-10.583,8.63-6.106,22.524-5.222,24.939
		c0.138,0.198,0.141,0.368,0.141,0.368s-0.054-0.131-0.141-0.368c-0.283-0.409-1.144-0.943-3.783-0.417
		c-3.925,0.785-4.71-7.063-13.342-3.924c-8.633,3.139-6.278,13.341-3.924,15.695c2.354,2.354,2.354,2.354,2.354,2.354
		s4.709,3.141,7.063,4.708c2.354,1.571,7.063-0.782,7.063-0.782s1.569,5.491,8.632,6.277c7.063,0.785,12.558-1.568,12.558-1.568
		s10.203,7.063,14.912,7.063s14.126-11.771,35.316-17.267c21.19-5.493,44.734,0.783,43.949-13.344
		c-0.785-14.126-12.558-11.771-12.558-11.771l-5.492-17.267c0,0,4.708-10.201,7.063-14.91s16.479-3.141,16.479-3.141
		s0.786-3.138,3.14-9.418c2.354-6.278,2.354-6.278,2.354-6.278s5.973,1.375,16.962,1.375c10.985,0,16.959-1.768,16.959-1.768
		s0,0,2.354,6.278c2.355,6.279,3.144,9.418,3.144,9.418s14.125-1.569,16.479,3.139c2.355,4.709,7.064,14.912,7.064,14.912
		l-5.492,17.268c0,0-11.773-2.354-12.559,11.771c-0.786,14.125,22.76,7.848,43.948,13.341c21.189,5.493,30.607,17.267,35.316,17.267
		s14.91-7.063,14.91-7.063s5.494,2.354,12.559,1.569c7.063-0.784,8.633-6.278,8.633-6.278s4.707,2.354,7.063,0.785
		c2.354-1.571,7.063-4.709,7.063-4.709s0,0,2.355-2.354C467.013,759.595,469.369,749.395,460.736,746.256z M245.798,496.49
		c-2.784,30.073,1.016,66.197-15.029,92.639c-1.674,2.761-16.403,6.81-15.285,2.13c1.031-4.313-1.975-23.947-2.537-27.476
		c-0.084-0.528-3.46-7.665-3.35-9.313c-0.226-2.657,4.663-8.937,6.329-9.447C226.668,531.513,246.503,488.864,245.798,496.49z
		 M364.355,530.163c-0.701-1.672,0.069-28.857,0.93-33.085c1.514-7.437,12.916,20.87,14.014,23.553
		c1.619,3.941,3.941,7.681,6.797,10.851c5.064,5.619,10.388,12.688,15.263,17.692c3.405,3.5-4.601,28.895-7.23,42.084
		c-0.744,3.733-6.035,1.861-9.123,0C364.617,578.951,362.341,552.647,364.355,530.163z"/>
</g>
<g id="kallings">
	<path fill="#EC008C" stroke="#000000" stroke-miterlimit="10" d="M226.864,686.219l-6.278,14.126l-13.734-6.671l1.961-7.063
		l7.063-16.873l-9.418-24.329l12.95,8.24l3.532-3.14v-3.924l-4.709-7.851l12.165,5.494l7.063-0.785l4.316-5.886l-2.748-5.492
		l-1.177-1.964l10.203,0.393c0,0,21.19,2.354,24.722,2.354c3.531,0,59.645,0.785,59.645,0.785l23.545-1.18l6.279-1.566l11.379,0.392
		l-4.316,7.455l3.142,3.926l5.887,2.354l10.986-3.925l-1.568,7.849l1.176,3.531l8.242,0.393l5.492-5.49l-4.709,18.834l-1.57,6.277
		l7.457,20.403l-12.166,7.457l-8.631-14.126c0,0-16.088,1.57-23.545,3.531s-20.014,7.063-20.014,7.063l1.961,6.278l-12.558-1.963
		l-8.633-13.733L290.041,687l-7.456,13.343l-13.734,4.314l1.962-8.633c0,0-11.38-6.671-24.329-8.633
		C233.534,685.432,226.864,686.219,226.864,686.219z"/>
</g>
<g id="lines">
	<path stroke="#000000" stroke-miterlimit="10" d="M306.007,38.58c21.976,0,76.125,20.797,92.607,35.315
		c16.479,14.52,54.936,67.886,60.037,89.075c5.101,21.189,8.344,42.143,8.739,63.725c0.021,1.131,9.479-20.565,16.75,1.25
		c2.75,8.25,6,15.5,5,21.25c-5.044,29.003-22.058,11.747-22.058,11.747s-4.555,36.24-10,45.648
		c-8.633,14.912-27.469,51.405-56.115,70.241c-12.481,8.208-40.809,14.52-43.949,14.911c-3.139,0.393-11.379-1.963-14.125,5.886
		c-2.745,7.849-1.567,37.672-1.567,37.672l0.391,3.529c0,0,36.494-1.568,48.269,18.443c11.771,20.012,31.393,56.897,36.491,69.847
		c5.103,12.95,11.771,25.113,9.812,31.785c-1.963,6.671-5.492,10.203-10.594,26.686c-5.104,16.479-10.986,32.177-10.203,34.139
		c0.785,1.963-0.285,9.257-1.176,14.52c-0.982,5.788-8.343,10.202-8.343,10.202l-8.141,28.646c0,0,6.279,11.378,7.063,14.519
		c0.784,3.142,2.744,10.203-0.395,10.203c-3.137,0-11.771,4.316-11.771,4.316s1.178,12.946,1.178,16.088
		c0,3.14-15.306,18.441-15.306,18.441s11.744,3.367,21.978,3.142c17.658-0.396,24.33-20.014,30.604-18.836
		c6.279,1.178,17.658,2.748,16.875,12.95c-0.784,10.199-1.178,12.947-1.178,12.947l3.531-1.568c0,0,5.887-3.532,9.418-2.746
		c3.531,0.784,12.164,6.67,10.203,13.341c-1.963,6.671-8.24,12.166-8.24,12.166l-10.203,5.492l-1.178-2.354c0,0,0,0.786-2.354,2.748
		c-2.354,1.961-7.848,5.103-10.985,3.923c-3.142-1.177-8.633-2.747-8.633-2.747s-7.457,7.457-14.521,7.063
		c-7.063-0.395-25.506-14.52-34.922-16.479c-9.418-1.964-33.748-3.926-33.748-3.926s-13.734-2.354-14.912-9.022
		c-1.176-6.674,3.926-15.306,3.926-15.306l9.812-2.748l4.313-14.127c0,0-4.709-13.342-6.276-14.125
		c-1.568-0.784-14.127-3.14-14.127-3.14l-6.67-13.342c0,0-13.029,0.193-15.777-0.196c-2.746-0.393,0-4.315,0-4.315l16.563-0.195
		c0,0,5.492,9.418,8.24,12.948c2.748,3.531,9.418,3.532,11.379,3.926c1.963,0.393,9.025,9.81,9.418,14.519
		c0.396,4.709-3.922,18.836-3.922,18.836l1.961,2.354h-3.533c0,0-9.809,1.176-10.985,8.237c-1.179,7.063,0.393,10.987,10.985,12.165
		c10.599,1.179,31.002,3.14,38.064,5.888c7.063,2.747,25.896,15.693,29.037,15.304c3.139-0.393,14.52-7.063,14.52-7.063
		s3.142,3.14,9.418,1.962c6.277-1.179,12.164-6.672,12.164-6.672s3.142,1.962,5.888,1.179c2.745-0.783,13.731-10.597,12.163-15.696
		c-1.567-5.102-9.418-10.594-12.948-5.886c-3.531,4.709-9.812,2.745-9.812,2.745s4.316-18.44-5.887-22.758
		c-10.201-4.317-13.734-0.003-17.266,5.101c-3.532,5.103-7.849,13.734-22.761,12.166c-14.912-1.57-23.543-7.85-23.543-7.85
		s14.127-14.912,14.91-18.442c0.785-3.532-0.393-18.835-0.393-18.835l-2.355-7.063l4.318,6.672c0,0,10.596-2.747,10.596-5.887
		s-8.242-20.013-8.242-20.013l-4.315-11.772v-5.101l4.709,11.771l-0.367-14.053l7.063,1.473l9.785-20.773
		c0,0,1.963-15.694,1.963-21.976c0-6.277,11.382-37.672,14.127-43.948c2.746-6.277,5.494-16.872,4.316-20.797
		c-1.178-3.927-12.559-27.076-17.66-37.671c-5.1-10.596-20.404-40.813-25.113-48.659c-4.709-7.848-12.557-14.91-27.467-16.872
		c-14.912-1.963-22.76-3.142-22.76-3.142s-2.172-23.971-1.178-36.102c0.344-4.182,1.584-8.66-1.056-11.696
		c-2.36-2.718-20.014-3.826-9.418-3.238c3.439,0.19,20.466-2.711,26.168-3.507c16.873-2.354,56.115-9.811,85.546-53.76
		c19.289-28.803,23.666-56.666,24.784-77.331c0,0,22,15.75,23.5-5.5c0.632-8.954-5.337-26.095-8.75-27.5
		c-4.25-1.75-14.75,16.5-14.75,16.5s0.633-7.06,0.722-9.37c0.785-20.405-7.851-79.659-35.316-113.405s-58.092-59.189-91.037-68.277
		c-28.449-7.848-31.688-4.903-31.688-4.903L306.007,38.58z M344.167,703.312l-2.688-5.997l1.807-2.243c0,0,1.766-2.06,20.014-5.592
		c17.74-3.434,29.135-2.354,29.135-2.354s0-4.414-20.307-1.179c-20.307,3.236-37.672,11.186-37.672,11.186L344.167,703.312z
		 M412.447,779.536c0,0,15.303-7.65,24.721-17.068s7.652-23.838,7.652-23.838s-2.355,7.355-9.123,18.541
		c-6.771,11.183-25.605,22.365-25.605,22.365H412.447L412.447,779.536z M448.941,767.765c0,0,1.766-5.886-0.591-9.418
		c-2.354-3.531-7.063-1.769-7.063-1.769s4.414,2.354,5.885,5.301c1.474,2.94-2.354,8.533-2.354,8.533L448.941,767.765z
		 M445.998,750.106c0,0,8.24,0.589,10.006,5.003c1.766,4.415-1.766,12.95-1.766,12.95l3.528-0.884c0,0,3.238-7.946,1.474-11.479
		c-1.767-3.53-13.832-6.769-13.832-6.769L445.998,750.106z M390.375,651.221c-3.826-2.943,2.354-10.007,2.354-10.007
		s6.182-3.531,9.418-12.066c3.235-8.534,2.354-15.009,2.354-15.009s-6.18,17.363-10.889,21.188
		c-4.709,3.826-14.42,11.186-20.896,6.182c-6.473-5.002,7.064-10.891,13.539-15.009c6.476-4.12,8.535-12.655,8.535-12.655
		s0.588,2.646-8.535,8.829c-9.123,6.18-21.188,7.65-24.721,4.415c-3.533-3.237,3.826-9.714,12.063-14.423
		c8.242-4.707,16.188-8.827,16.188-8.827s-8.535-1.769-15.008-3.237c-6.478-1.472-11.773-6.477-9.418-10.89
		c2.354-4.414,13.241,0,13.241,0l17.658,7.063c0,0,0.295-16.187,2.648-25.899c2.354-9.711,5.887-19.423,5.887-19.423
		s-12.949-17.067-22.074-28.548c-9.123-11.479-12.946-26.781-12.946-26.781s1.178-1.472,2.647-2.941s1.471-2.648,1.471-2.648
		s-1.178,0.589-5.592,2.648c-4.414,2.059-8.24,2.354-8.24,2.354s0,0,3.238,0.59c3.236,0.589,3.531,1.472,3.531,1.472
		s4.119,18.541,12.063,30.606c7.945,12.066,22.072,26.193,22.072,26.193s-3.531,7.651-5.592,15.598
		c-2.059,7.945-2.648,22.367-2.648,22.367s-8.827-3.826-15.893-5.887c-7.063-2.061-11.477-4.12-15.598,4.415
		s14.715,15.598,14.715,15.598s-19.424,12.36-17.953,20.015c1.473,7.651,12.951,5.886,12.951,5.886s-7.064,6.181,0,11.185
		c7.063,5.002,16.772,0,16.772,0s-2.354,6.181-1.178,8.533c1.178,2.354,4.969,1.518,10.596,2.944
		c4.931,1.251,12.949-16.188,12.949-16.188S394.201,654.163,390.375,651.221z M360.06,628.853c0,0,1.474,3.238-13.536,3.238
		c-11.771,0-17.951,0.294-17.951,0.294v2.941c0,0,9.711-1.472,20.307-2.06c20-1.112,22.662-2.063,22.662-2.063L360.06,628.853z
		 M370.361,640.624c0,0-7.063,1.18-20.896,2.649c-13.832,1.471-20.307,1.767-20.307,1.767v1.473c0,0,15.01-1.768,24.428-2.648
		C363.003,642.979,370.361,640.624,370.361,640.624z M305.535,657.203l24.508-2.155c0,0-0.295-10.892,0.293-15.307
		c0.588-4.414-1.471-12.064-1.471-12.064s-4.414,0.884-10.892,0.884c-6.475,0-12.438,0.098-12.438,0.098 M305.748,43.094
		c0,0-3.236-2.943-31.687,4.903c-32.946,9.087-63.569,34.531-91.037,68.277c-23.743,29.17-33.414,77.397-35.093,103.12
		c-0.264,4.036-0.041,18.801-0.041,18.801s-9.5-13.5-12.75-7.5c-1.413,2.607-4.963,18.459-4.25,21.75c4.5,20.75,18,7.5,18,7.5
		s7.189,47.351,24.321,72.937c29.431,43.949,68.672,51.404,85.545,53.76c6.327,0.883,26.101,3.142,28.832,3.313
		c14.125,0.883-13.832-3.532-13.136,15.132c0.454,12.163-1.176,36.101-1.176,36.101s-7.848,1.177-22.76,3.141
		c-14.912,1.962-22.759,9.024-27.468,16.872c-4.708,7.85-20.013,38.064-25.113,48.659c-5.101,10.595-16.482,33.746-17.66,37.67
		c-1.177,3.926,1.571,14.521,4.317,20.798c2.747,6.278,14.127,37.67,14.127,43.949s1.962,21.975,1.962,21.975l8.917,17.048
		l7.063,4.119l0.501,12.188l4.709-11.772v5.104l-4.317,11.771c0,0-8.24,16.871-8.24,20.014c0,3.139,10.595,5.886,10.595,5.886
		l4.317-6.672l-2.354,7.063c0,0-1.177,15.306-0.394,18.836c0.784,3.531,14.912,18.444,14.912,18.444s-8.633,6.276-23.545,7.847
		c-14.911,1.57-19.227-7.063-22.759-12.165c-3.531-5.102-7.063-9.416-17.266-5.1c-10.203,4.315-5.886,22.758-5.886,22.758
		s-6.278,1.964-9.81-2.745c-3.532-4.709-11.38,0.784-12.95,5.888c-1.569,5.1,9.418,14.911,12.165,15.692
		c2.746,0.784,5.885-1.177,5.885-1.177s5.886,5.495,12.164,6.673c6.279,1.177,9.418-1.964,9.418-1.964s11.38,6.672,14.52,7.063
		c3.14,0.393,21.974-12.559,29.037-15.307s27.469-4.709,38.064-5.886c10.595-1.178,12.164-5.1,10.987-12.163
		c-1.177-7.063-10.987-8.24-10.987-8.24h-3.532l1.961-2.354c0,0-4.315-14.127-3.923-18.835c0.392-4.709,7.455-14.127,9.417-14.521
		c1.963-0.392,8.633-0.394,11.38-3.926c2.748-3.531,8.241-12.949,8.241-12.949l16.563,0.592c0,0,2.748,3.925,0,4.314
		c-2.748,0.395-15.778-0.197-15.778-0.197l-6.67,13.344c0,0-12.557,2.354-14.126,3.14c-1.57,0.783-6.28,14.127-6.28,14.127
		l4.317,14.126l9.81,2.747c0,0,5.102,8.634,3.924,15.304c-1.177,6.673-14.912,9.024-14.912,9.024s-24.329,1.965-33.747,3.926
		c-9.417,1.963-27.86,16.087-34.923,16.479c-7.063,0.394-14.52-7.063-14.52-7.063s-5.493,1.57-8.632,2.747
		c-3.14,1.178-8.632-1.963-10.987-3.924c-2.354-1.962-2.354-2.748-2.354-2.748l-1.177,2.354l-10.203-5.492
		c0,0-6.279-5.491-8.241-12.166c-1.962-6.67,6.671-12.556,10.203-13.34c3.532-0.787,9.418,2.745,9.418,2.745l3.532,1.57
		c0,0-0.393-2.748-1.177-12.949c-0.784-10.202,10.595-11.771,16.873-12.95c6.278-1.177,12.949,18.443,30.607,18.836
		c10.23,0.229,21.975-3.138,21.975-3.138s-15.303-15.305-15.303-18.444c0-3.139,1.177-16.088,1.177-16.088
		s-8.634-4.314-11.772-4.314c-3.138,0-1.177-7.063-0.393-10.204c0.784-3.139,7.063-14.519,7.063-14.519l-8.142-28.646
		c0,0-7.358-4.414-8.339-10.201c-0.892-5.263-1.961-12.556-1.177-14.52c0.784-1.964-5.101-17.658-10.202-34.141
		c-5.102-16.479-8.633-20.014-10.595-26.684c-1.962-6.672,4.709-18.835,9.81-31.785c5.101-12.949,24.722-49.835,36.494-69.848
		c11.772-20.015,48.266-18.442,48.266-18.442l0.392-3.531c0,0,1.177-29.822-1.569-37.67c-2.746-7.849-10.987-5.493-14.126-5.886
		c-3.139-0.395-31.464-6.702-43.949-14.912c-28.646-18.835-47.481-55.329-56.114-70.241c-4.67-8.066-9.278-38.034-9.278-38.034
		s-27.069,3.278-11.569-40.222c3-6.25,9.936,0.893,10.002-0.744c0.834-20.639,4.548-44.987,9.275-64.619
		c5.103-21.189,43.557-74.558,60.038-89.076c16.481-14.52,70.632-35.315,92.605-35.315L305.748,43.094z M276.612,696.738
		c0,0-17.364-7.945-37.671-11.183c-20.307-3.238-20.307,1.177-20.307,1.177s11.395-1.078,29.136,2.354
		c18.247,3.531,20.013,5.593,20.013,5.593l1.806,2.243l-2.689,5.997L276.612,696.738z M200.977,779.144
		c0,0-18.836-11.184-25.604-22.367c-6.77-11.184-9.124-18.541-9.124-18.541s-1.765,14.421,7.652,23.839s24.722,17.069,24.722,17.069
		H200.977L200.977,779.144z M166.248,770.021c0,0-3.826-5.592-2.354-8.535c1.472-2.941,5.886-5.298,5.886-5.298
		s-4.708-1.766-7.063,1.766c-2.354,3.532-0.588,9.419-0.588,9.419L166.248,770.021z M165.66,748.534c0,0-12.067,3.238-13.833,6.771
		c-1.766,3.531,1.472,11.479,1.472,11.479l3.532,0.885c0,0-3.532-8.535-1.766-12.95c1.766-4.414,10.006-5.003,10.006-5.003
		L165.66,748.534z M200.977,638.468c0,0,7.946,13.244,12.949,16.187c5.003,2.943,9.418-0.589,10.595-2.94
		c1.177-2.354-1.177-8.535-1.177-8.535s9.712,5.003,16.775,0c7.063-5.004,0-11.186,0-11.186s11.479,1.768,12.95-5.886
		c1.471-7.653-17.953-20.014-17.953-20.014s18.835-7.063,14.715-15.599c-4.12-8.533-8.535-6.476-15.598-4.415
		c-7.063,2.062-15.892,5.888-15.892,5.888s-0.589-14.421-2.649-22.367s-5.591-15.598-5.591-15.598s14.126-14.128,22.073-26.193
		c7.946-12.066,12.066-30.607,12.066-30.607s0.294-0.884,3.532-1.472c3.237-0.589,3.237-0.589,3.237-0.589s-3.826-0.294-8.241-2.354
		c-4.415-2.061-5.592-2.648-5.592-2.648s0,1.178,1.472,2.648c1.471,1.472,2.648,2.941,2.648,2.941s-3.826,15.304-12.949,26.782
		c-9.124,11.478-22.073,28.547-22.073,28.547s3.532,9.712,5.886,19.424s2.649,25.898,2.649,25.898l17.658-7.063
		c0,0,10.89-4.414,13.244,0c2.354,4.415-2.943,9.418-9.418,10.892c-6.475,1.472-15.009,3.235-15.009,3.235s7.946,4.121,16.187,8.829
		c8.241,4.709,15.598,11.186,12.066,14.421c-3.532,3.237-15.598,1.769-24.721-4.414c-9.124-6.181-8.535-8.828-8.535-8.828
		s2.061,8.533,8.535,12.654c6.474,4.119,20.012,10.006,13.538,15.01c-6.475,5.004-16.187-2.354-20.896-6.182
		s-10.889-21.188-10.889-21.188s-0.883,6.476,2.354,15.01c3.237,8.534,9.418,12.065,9.418,12.065s6.18,7.063,2.354,10.008
		C216.868,653.771,200.977,638.468,200.977,638.468z M239.53,630.815c0,0,2.661,0.949,22.661,2.06
		c10.595,0.59,20.307,2.062,20.307,2.062v-2.942c0,0-6.18-0.295-17.953-0.295c-15.009,0-13.538-3.234-13.538-3.234L239.53,630.815z
		 M257.482,643.47c9.418,0.883,24.427,2.647,24.427,2.647v-1.472c0,0-6.475-0.295-20.307-1.767
		c-13.832-1.473-20.896-2.648-20.896-2.648S248.065,642.588,257.482,643.47z M305.535,628.656c0,0-5.967-0.491-12.442-0.491
		c-6.475,0-10.889-0.883-10.889-0.883s-2.061,7.651-1.472,12.066c0.589,4.415,0.295,15.304,0.295,15.304l24.508,2.551
		 M242.56,500.022c0,0-0.588,32.962-2.943,45.911s-15.304,44.731-15.304,44.731l8.24-3.529c0,0,9.418-18.247,11.184-40.614
		c1.766-22.366,2.061-50.031,2.061-50.031L242.56,500.022z M365.285,497.078c0,0-3.236,33.553-3.236,45.911
		c0,12.361,11.771,43.56,11.771,43.56l7.063,1.177c0,0-12.358-32.962-14.125-44.146C364.99,532.396,365.285,497.078,365.285,497.078
		z"/>
</g>
<path fill="#231F20" stroke="#000000" stroke-miterlimit="10" d="M306.14,305.445l21-10c0,0-12,2-21,2c-9,0-17-2-17-2
	L306.14,305.445z"/>
<g>
	<path fill="#FFFFFF" d="M306.429,653.821c-2.274,1.195-3.528,2.174-3.762,2.936l-0.246-0.035l-3.463-0.984l0.035-0.229
		l-0.053-0.756c1.171-2.473,1.856-4.611,2.057-6.416c0.128-1.254-0.183-2.525-0.932-3.814l-1.441-0.51v0.105l-0.352-0.158
		l0.035-0.352c0.011-0.129,1.318-0.48,3.92-1.055c1.312,0.492,2.25,1.33,2.813,2.514c0.211,1.066,0.257,2.139,0.141,3.217
		c-0.153,1.395-0.681,2.859-1.582,4.395c1.464-0.797,3.228-2.256,5.291-4.377c3.551-3.352,5.572-5.801,6.064-7.348l0.035-0.123
		c-0.083-0.328-0.439-0.527-1.072-0.598l-0.598-0.07l-0.756,0.035l-0.088-0.123l-0.123-0.018c-5.356,0.492-10.195,1.242-14.52,2.25
		c-7.958,2.848-12.903,4.172-14.836,3.973c-0.703-0.082-1.166-0.34-1.389-0.773l-0.141-0.035l0.141-1.213l0.316-0.686
		c0.27-0.832,0.867-1.799,1.793-2.9c0.152-0.609,1.904-2.385,5.256-5.326c4.195-3.656,6.439-5.473,6.733-5.449l4.465-0.264
		l-0.035,0.387c-0.798,0.117-3.445,1.834-7.946,5.15c-3.645,3.023-5.977,5.244-6.996,6.662l-0.018,0.246
		c0.047,0.246,0.27,0.393,0.668,0.439c1.582,0.164,3.328-0.018,5.238-0.545l0.105,0.123l0.123,0.018
		c9.071-1.816,15.439-2.977,19.108-3.48l4.166,0.07l0.615,0.053l1.793,0.439c1.23,0.738,1.863,1.752,1.898,3.041
		C318.527,644.346,314.374,648.207,306.429,653.821z M305.849,629.405l-2.602,4.869l-1.934,3.111l-4.869,0.475l-0.088-0.123
		l0.018-0.246c1.241-1.066,2.496-2.818,3.762-5.256l0.141-0.123c0.598-1.395,1.055-2.244,1.371-2.549L305.849,629.405z"/>
	<path fill="#FFFFFF" d="M325.624,633.114v0.176l-3.129,1.09c-3.246,1.98-4.729,4.102-4.447,6.363
		c0.164,1.102,0.501,1.837,1.011,2.206s1.327,0.507,2.452,0.413s2.256-1.02,3.393-2.777c0.762-0.293,1.354,0.615,1.775,2.725
		c-1.23,2.098-3.451,3.146-6.662,3.146h-0.193l-1.74-0.545c-2.578-1.277-3.867-3.498-3.867-6.662c0-3.223,2.221-5.795,6.662-7.717
		C321.792,631.531,323.374,632.059,325.624,633.114z M328.788,632.235l-1.934,0.352c-2.578-0.609-3.867-1.078-3.867-1.406v-0.176
		h1.23C325.05,631.004,326.573,631.414,328.788,632.235z"/>
</g>
<g id="character_shoes">
</g>
<g id="character_pants">
</g>
<g id="character_shirt">
</g>
<g id="character_eyes">
</g>
<g id="character_mouth">
</g>
<g id="character_top">
</g>
<g id="character_accessories">
</g>

</svg>
