<?xml version="1.0" encoding="utf-8"?>
<!-- Generator: Adobe Illustrator 21.0.2, SVG Export Plug-In . SVG Version: 6.00 Build 0)  -->
<svg version="1.1" id="Layer_1" xmlns="http://www.w3.org/2000/svg" xmlns:xlink="http://www.w3.org/1999/xlink" x="0px" y="0px"
	 viewBox="0 0 150 150" style="enable-background:new 0 0 150 150;" xml:space="preserve">
<style type="text/css">
	.st0{clip-path:url(#SVGID_2_);}
	.st1{clip-path:url(#SVGID_4_);}
	.st2{clip-path:url(#SVGID_6_);}
	.st3{clip-path:url(#SVGID_8_);fill:url(#SVGID_9_);}
	.st4{clip-path:url(#SVGID_11_);fill:none;stroke:#D1D3D4;stroke-miterlimit:10;}
	.st5{clip-path:url(#SVGID_13_);fill:url(#SVGID_14_);}
	.st6{clip-path:url(#SVGID_16_);fill:none;stroke:#D1D3D4;stroke-miterlimit:10;}
	.st7{clip-path:url(#SVGID_18_);fill:url(#SVGID_19_);}
	.st8{clip-path:url(#SVGID_21_);fill:none;stroke:#D1D3D4;stroke-miterlimit:10;}
	.st9{clip-path:url(#SVGID_23_);fill:url(#SVGID_24_);}
	.st10{clip-path:url(#SVGID_26_);fill:none;stroke:#D1D3D4;stroke-miterlimit:10;}
	.st11{clip-path:url(#SVGID_28_);fill:url(#SVGID_29_);}
	.st12{clip-path:url(#SVGID_31_);fill:none;stroke:#D1D3D4;stroke-miterlimit:10;}
	.st13{clip-path:url(#SVGID_33_);fill:url(#SVGID_34_);}
	.st14{clip-path:url(#SVGID_36_);fill:#001033;}
	.st15{clip-path:url(#SVGID_36_);fill:none;stroke:#003158;stroke-miterlimit:10;}
	.st16{opacity:0.56;clip-path:url(#SVGID_38_);}
	.st17{opacity:0.75;clip-path:url(#SVGID_40_);}
	.st18{clip-path:url(#SVGID_42_);}
	.st19{clip-path:url(#SVGID_40_);enable-background:new    ;}
	.st20{clip-path:url(#SVGID_46_);enable-background:new    ;}
	.st21{clip-path:url(#SVGID_48_);}
	.st22{clip-path:url(#SVGID_50_);enable-background:new    ;}
	.st23{clip-path:url(#SVGID_52_);fill:#156E93;}
	.st24{clip-path:url(#SVGID_52_);fill:#136B8F;}
	.st25{clip-path:url(#SVGID_52_);fill:#12688C;}
	.st26{clip-path:url(#SVGID_54_);}
	.st27{clip-path:url(#SVGID_56_);enable-background:new    ;}
	.st28{clip-path:url(#SVGID_58_);fill:#12688C;}
	.st29{clip-path:url(#SVGID_46_);fill:#106688;}
	.st30{clip-path:url(#SVGID_46_);fill:#156E92;}
	.st31{clip-path:url(#SVGID_60_);}
	.st32{clip-path:url(#SVGID_62_);enable-background:new    ;}
	.st33{clip-path:url(#SVGID_64_);fill:#12688C;}
	.st34{clip-path:url(#SVGID_66_);}
	.st35{clip-path:url(#SVGID_68_);enable-background:new    ;}
	.st36{clip-path:url(#SVGID_70_);fill:#156E93;}
	.st37{clip-path:url(#SVGID_70_);fill:#136B8F;}
	.st38{clip-path:url(#SVGID_70_);fill:#12688C;}
	.st39{clip-path:url(#SVGID_72_);}
	.st40{clip-path:url(#SVGID_74_);enable-background:new    ;}
	.st41{clip-path:url(#SVGID_76_);fill:#156E93;}
	.st42{clip-path:url(#SVGID_78_);}
	.st43{clip-path:url(#SVGID_80_);enable-background:new    ;}
	.st44{clip-path:url(#SVGID_82_);fill:#12688C;}
	.st45{clip-path:url(#SVGID_82_);fill:#136B8F;}
	.st46{clip-path:url(#SVGID_46_);fill:#27A0D4;}
	.st47{clip-path:url(#SVGID_84_);}
	.st48{clip-path:url(#SVGID_86_);enable-background:new    ;}
	.st49{clip-path:url(#SVGID_88_);fill:#12688C;}
	.st50{opacity:0.75;clip-path:url(#SVGID_90_);}
	.st51{clip-path:url(#SVGID_92_);}
	.st52{clip-path:url(#SVGID_90_);fill:#001033;}
	.st53{clip-path:url(#SVGID_90_);fill:none;stroke:#002E54;stroke-width:3;stroke-miterlimit:10;}
	.st54{opacity:0.68;clip-path:url(#SVGID_96_);}
	.st55{clip-path:url(#SVGID_98_);fill:#001033;}
	.st56{clip-path:url(#SVGID_96_);fill:none;stroke:#F1F2F2;stroke-width:5;stroke-miterlimit:10;}
	.st57{opacity:0.75;clip-path:url(#SVGID_104_);}
	.st58{clip-path:url(#SVGID_106_);}
	.st59{fill:#E6E7E8;}
	.st60{font-family:'Onyx';}
	.st61{font-size:22.0671px;}
	.st62{letter-spacing:2;}
	.st63{clip-path:url(#SVGID_110_);fill:none;stroke:#939598;stroke-width:0.5;stroke-miterlimit:10;}
	.st64{font-family:'OpenSymbol';}
	.st65{clip-path:url(#SVGID_112_);fill:none;stroke:#939598;stroke-width:0.5;stroke-miterlimit:10;}
	.st66{clip-path:url(#SVGID_114_);fill:none;stroke:#939598;stroke-width:0.5;stroke-miterlimit:10;}
	.st67{clip-path:url(#SVGID_116_);fill:none;stroke:#939598;stroke-width:0.5;stroke-miterlimit:10;}
	.st68{clip-path:url(#SVGID_118_);fill:none;stroke:#939598;stroke-width:0.5;stroke-miterlimit:10;}
</style>
<g>
	<g>
		<defs>
			<rect id="SVGID_1_" x="-8.1" y="-38" width="165.5" height="234.1"/>
		</defs>
		<clipPath id="SVGID_2_">
			<use xlink:href="#SVGID_1_"  style="overflow:visible;"/>
		</clipPath>
		<g class="st0">
			<defs>
				<rect id="SVGID_3_" x="-8.1" y="-38" width="165.5" height="234.1"/>
			</defs>
			<clipPath id="SVGID_4_">
				<use xlink:href="#SVGID_3_"  style="overflow:visible;"/>
			</clipPath>
			<g class="st1">
				<defs>
					<rect id="SVGID_5_" x="-8.1" y="-38" width="165.5" height="234.1"/>
				</defs>
				<clipPath id="SVGID_6_">
					<use xlink:href="#SVGID_5_"  style="overflow:visible;"/>
				</clipPath>
				<path class="st2" d="M129.3,75.2c0,29.7-24.1,53.9-53.9,53.9c-29.7,0-53.9-24.1-53.9-53.9s24.1-53.9,53.9-53.9
					C105.2,21.3,129.3,45.4,129.3,75.2"/>
			</g>
			<g class="st1">
				<defs>
					<path id="SVGID_7_" d="M32.2,77.1C32.2,53.3,51.5,34,75.3,34s43.1,19.3,43.1,43.1c0,23.8-19.3,43.1-43.1,43.1
						S32.2,100.9,32.2,77.1 M31.1,77.4c0,24.4,19.8,44.2,44.2,44.2c24.4,0,44.2-19.8,44.2-44.2c0-24.4-19.8-44.2-44.2-44.2
						C50.9,33.2,31.1,53,31.1,77.4"/>
				</defs>
				<clipPath id="SVGID_8_">
					<use xlink:href="#SVGID_7_"  style="overflow:visible;"/>
				</clipPath>
				
					<linearGradient id="SVGID_9_" gradientUnits="userSpaceOnUse" x1="-0.3457" y1="-1.5858" x2="-6.757715e-02" y2="-1.5858" gradientTransform="matrix(318 0 0 -318 141 -426.8896)">
					<stop  offset="0" style="stop-color:#939598"/>
					<stop  offset="0.4545" style="stop-color:#BCBEC0"/>
					<stop  offset="1" style="stop-color:#58595B"/>
				</linearGradient>
				<rect x="31.1" y="33.2" class="st3" width="88.4" height="88.4"/>
			</g>
			<g class="st1">
				<defs>
					<rect id="SVGID_10_" x="-8.1" y="-38" width="165.5" height="234.1"/>
				</defs>
				<clipPath id="SVGID_11_">
					<use xlink:href="#SVGID_10_"  style="overflow:visible;"/>
				</clipPath>
				<path class="st4" d="M119.5,77.4c0,24.4-19.8,44.2-44.2,44.2s-44.2-19.8-44.2-44.2c0-24.4,19.8-44.2,44.2-44.2
					S119.5,53,119.5,77.4z M75.3,34c-23.8,0-43.1,19.3-43.1,43.1c0,23.8,19.3,43.1,43.1,43.1c23.8,0,43.1-19.3,43.1-43.1
					C118.4,53.3,99.1,34,75.3,34z"/>
			</g>
			<g class="st1">
				<defs>
					<path id="SVGID_12_" d="M30.3,76.6c0-24.9,20.2-45,45-45c24.9,0,45,20.2,45,45c0,24.9-20.2,45-45,45
						C50.4,121.6,30.3,101.4,30.3,76.6 M29.1,76.8c0,25.5,20.7,46.2,46.2,46.2c25.5,0,46.2-20.7,46.2-46.2
						c0-25.5-20.7-46.2-46.2-46.2C49.8,30.7,29.1,51.4,29.1,76.8"/>
				</defs>
				<clipPath id="SVGID_13_">
					<use xlink:href="#SVGID_12_"  style="overflow:visible;"/>
				</clipPath>
				
					<linearGradient id="SVGID_14_" gradientUnits="userSpaceOnUse" x1="-0.3159" y1="-1.5233" x2="-3.778012e-02" y2="-1.5233" gradientTransform="matrix(332 0 0 -332 134 -428.8896)">
					<stop  offset="0" style="stop-color:#939598"/>
					<stop  offset="0.4545" style="stop-color:#BCBEC0"/>
					<stop  offset="1" style="stop-color:#58595B"/>
				</linearGradient>
				<rect x="29.1" y="30.7" class="st5" width="92.3" height="92.3"/>
			</g>
			<g class="st1">
				<defs>
					<rect id="SVGID_15_" x="-8.1" y="-38" width="165.5" height="234.1"/>
				</defs>
				<clipPath id="SVGID_16_">
					<use xlink:href="#SVGID_15_"  style="overflow:visible;"/>
				</clipPath>
				<path class="st6" d="M121.5,76.8c0,25.5-20.7,46.2-46.2,46.2c-25.5,0-46.2-20.7-46.2-46.2s20.7-46.2,46.2-46.2
					C100.8,30.7,121.5,51.4,121.5,76.8z M75.3,31.5c-24.9,0-45,20.2-45,45c0,24.9,20.2,45,45,45c24.9,0,45-20.2,45-45
					C120.3,51.7,100.2,31.5,75.3,31.5z"/>
			</g>
			<g class="st1">
				<defs>
					<path id="SVGID_17_" d="M28.5,75.9C28.5,50,49.5,29,75.4,29c25.9,0,46.9,21,46.9,46.9c0,25.9-21,46.9-46.9,46.9
						C49.5,122.8,28.5,101.8,28.5,75.9 M27.3,76.2c0,26.6,21.5,48.1,48.1,48.1c26.6,0,48.1-21.5,48.1-48.1S102,28.1,75.4,28.1
						C48.8,28.1,27.3,49.6,27.3,76.2"/>
				</defs>
				<clipPath id="SVGID_18_">
					<use xlink:href="#SVGID_17_"  style="overflow:visible;"/>
				</clipPath>
				
					<linearGradient id="SVGID_19_" gradientUnits="userSpaceOnUse" x1="-0.2892" y1="-1.4665" x2="-1.108921e-02" y2="-1.4665" gradientTransform="matrix(346 0 0 -346 127.333 -431.2227)">
					<stop  offset="0" style="stop-color:#939598"/>
					<stop  offset="0.4545" style="stop-color:#BCBEC0"/>
					<stop  offset="1" style="stop-color:#58595B"/>
				</linearGradient>
				<rect x="27.3" y="28.1" class="st7" width="96.2" height="96.2"/>
			</g>
			<g class="st1">
				<defs>
					<rect id="SVGID_20_" x="-8.1" y="-38" width="165.5" height="234.1"/>
				</defs>
				<clipPath id="SVGID_21_">
					<use xlink:href="#SVGID_20_"  style="overflow:visible;"/>
				</clipPath>
				<path class="st8" d="M123.5,76.2c0,26.6-21.5,48.1-48.1,48.1c-26.6,0-48.1-21.5-48.1-48.1c0-26.6,21.5-48.1,48.1-48.1
					C102,28.1,123.5,49.6,123.5,76.2z M75.4,29c-25.9,0-46.9,21-46.9,46.9c0,25.9,21,46.9,46.9,46.9c25.9,0,46.9-21,46.9-46.9
					C122.3,50,101.3,29,75.4,29z"/>
			</g>
			<g class="st1">
				<defs>
					<path id="SVGID_22_" d="M26.4,75.4c0-27,21.9-48.9,48.9-48.9c27,0,48.9,21.9,48.9,48.9c0,27-21.9,48.9-48.9,48.9
						C48.3,124.3,26.4,102.4,26.4,75.4 M25.1,75.7c0,27.7,22.5,50.1,50.1,50.1c27.7,0,50.1-22.5,50.1-50.1
						c0-27.7-22.5-50.1-50.1-50.1C47.6,25.6,25.1,48,25.1,75.7"/>
				</defs>
				<clipPath id="SVGID_23_">
					<use xlink:href="#SVGID_22_"  style="overflow:visible;"/>
				</clipPath>
				
					<linearGradient id="SVGID_24_" gradientUnits="userSpaceOnUse" x1="-0.2621" y1="-1.4102" x2="1.601397e-02" y2="-1.4102" gradientTransform="matrix(360.666 0 0 -360.666 119.667 -432.8896)">
					<stop  offset="0" style="stop-color:#939598"/>
					<stop  offset="0.4545" style="stop-color:#BCBEC0"/>
					<stop  offset="1" style="stop-color:#58595B"/>
				</linearGradient>
				<rect x="25.1" y="25.6" class="st9" width="100.3" height="100.3"/>
			</g>
			<g class="st1">
				<defs>
					<rect id="SVGID_25_" x="-8.1" y="-38" width="165.5" height="234.1"/>
				</defs>
				<clipPath id="SVGID_26_">
					<use xlink:href="#SVGID_25_"  style="overflow:visible;"/>
				</clipPath>
				<path class="st10" d="M125.4,75.7c0,27.7-22.5,50.1-50.1,50.1c-27.7,0-50.1-22.5-50.1-50.1c0-27.7,22.5-50.1,50.1-50.1
					C103,25.6,125.4,48,125.4,75.7z M75.3,26.5c-27,0-48.9,21.9-48.9,48.9c0,27,21.9,48.9,48.9,48.9c27,0,48.9-21.9,48.9-48.9
					C124.2,48.4,102.3,26.5,75.3,26.5z"/>
			</g>
			<g class="st1">
				<defs>
					<path id="SVGID_27_" d="M24.3,74.9c0-28.2,22.8-51,51-51s51,22.8,51,51c0,28.2-22.8,51-51,51S24.3,103,24.3,74.9 M23,75.2
						c0,28.9,23.4,52.3,52.3,52.3c28.9,0,52.3-23.4,52.3-52.3c0-28.9-23.4-52.3-52.3-52.3C46.4,22.9,23,46.3,23,75.2"/>
				</defs>
				<clipPath id="SVGID_28_">
					<use xlink:href="#SVGID_27_"  style="overflow:visible;"/>
				</clipPath>
				
					<linearGradient id="SVGID_29_" gradientUnits="userSpaceOnUse" x1="-0.2367" y1="-1.3566" x2="4.142080e-02" y2="-1.3566" gradientTransform="matrix(375.9995 0 0 -375.9995 112.0005 -434.8896)">
					<stop  offset="0" style="stop-color:#939598"/>
					<stop  offset="0.4545" style="stop-color:#BCBEC0"/>
					<stop  offset="1" style="stop-color:#58595B"/>
				</linearGradient>
				<rect x="23" y="22.9" class="st11" width="104.6" height="104.6"/>
			</g>
			<g class="st1">
				<defs>
					<rect id="SVGID_30_" x="-8.1" y="-38" width="165.5" height="234.1"/>
				</defs>
				<clipPath id="SVGID_31_">
					<use xlink:href="#SVGID_30_"  style="overflow:visible;"/>
				</clipPath>
				<path class="st12" d="M127.6,75.2c0,28.9-23.4,52.3-52.3,52.3C46.4,127.5,23,104,23,75.2s23.4-52.3,52.3-52.3
					C104.2,22.9,127.6,46.3,127.6,75.2z M75.3,23.9c-28.2,0-51,22.8-51,51s22.8,51,51,51c28.2,0,51-22.8,51-51S103.5,23.9,75.3,23.9
					z"/>
			</g>
			<g class="st1">
				<defs>
					<path id="SVGID_32_" d="M33.3,77.2c0,23.2,18.8,41.9,41.9,41.9c23.2,0,41.9-18.8,41.9-41.9c0-23.2-18.8-41.9-41.9-41.9
						C52.1,35.3,33.3,54.1,33.3,77.2"/>
				</defs>
				<clipPath id="SVGID_33_">
					<use xlink:href="#SVGID_32_"  style="overflow:visible;"/>
				</clipPath>
				
					<linearGradient id="SVGID_34_" gradientUnits="userSpaceOnUse" x1="-1.1755" y1="0.9973" x2="-0.8974" y2="0.9973" gradientTransform="matrix(-47.1842 -297.9096 -297.9096 47.1842 323.4619 -278.5957)">
					<stop  offset="0" style="stop-color:#002D52"/>
					<stop  offset="1" style="stop-color:#001032"/>
				</linearGradient>
				<polygon class="st13" points="35.4,132.1 20.4,37.3 115.1,22.3 130.1,117.1 				"/>
			</g>
			<g class="st1">
				<defs>
					<rect id="SVGID_35_" x="-8.1" y="-38" width="165.5" height="234.1"/>
				</defs>
				<clipPath id="SVGID_36_">
					<use xlink:href="#SVGID_35_"  style="overflow:visible;"/>
				</clipPath>
				<path class="st14" d="M96.8,65.5c0,7-9.7,12.6-21.6,12.6c-11.9,0-21.6-5.6-21.6-12.6c0-7,9.7-12.6,21.6-12.6
					C87.1,52.9,96.8,58.6,96.8,65.5"/>
				<ellipse class="st15" cx="75.2" cy="65.5" rx="21.6" ry="12.6"/>
			</g>
			<g class="st1">
				<defs>
					<rect id="SVGID_37_" x="-8.1" y="-38" width="165.5" height="234.1"/>
				</defs>
				<clipPath id="SVGID_38_">
					<use xlink:href="#SVGID_37_"  style="overflow:visible;"/>
				</clipPath>
				<g class="st16">
					<g>
						<defs>
							<rect id="SVGID_39_" x="24.6" y="28.7" width="105.8" height="96.9"/>
						</defs>
						<clipPath id="SVGID_40_">
							<use xlink:href="#SVGID_39_"  style="overflow:visible;"/>
						</clipPath>
						<g class="st17">
							<g>
								<defs>
									<rect id="SVGID_41_" x="24.6" y="28.7" width="105.8" height="96.9"/>
								</defs>
								<clipPath id="SVGID_42_">
									<use xlink:href="#SVGID_41_"  style="overflow:visible;"/>
								</clipPath>
								<g class="st18">
									<defs>
										<rect id="SVGID_43_" x="24.6" y="28.7" width="105.8" height="96.9"/>
									</defs>
									<clipPath id="SVGID_44_">
										<use xlink:href="#SVGID_43_"  style="overflow:visible;"/>
									</clipPath>
									<g transform="matrix(1 0 0 1 1.907349e-06 1.907349e-06)" style="clip-path:url(#SVGID_44_);">
										
											<image style="overflow:visible;" width="1586" height="1452" xlink:href="5311E85E.png"  transform="matrix(6.673840e-02 0 0 6.673840e-02 24.6286 28.7185)">
										</image>
									</g>
								</g>
							</g>
						</g>
						<g class="st19">
							<g>
								<defs>
									<rect id="SVGID_45_" x="36.5" y="40.5" width="77.5" height="68.5"/>
								</defs>
								<clipPath id="SVGID_46_">
									<use xlink:href="#SVGID_45_"  style="overflow:visible;"/>
								</clipPath>
								<g class="st20">
									<g>
										<defs>
											<rect id="SVGID_47_" x="87.3" y="65.4" width="16.2" height="28.3"/>
										</defs>
										<clipPath id="SVGID_48_">
											<use xlink:href="#SVGID_47_"  style="overflow:visible;"/>
										</clipPath>
										<g class="st21">
											<defs>
												<path id="SVGID_49_" d="M92.7,93.8c-1.8,0-3.6,0-5.3,0h0c8,0,11.3-16.9,10.8-28.3l5.3,0C104,76.9,100.7,93.8,92.7,93.8
													C92.7,93.8,92.7,93.8,92.7,93.8"/>
											</defs>
											<clipPath id="SVGID_50_">
												<use xlink:href="#SVGID_49_"  style="overflow:visible;"/>
											</clipPath>
											<g class="st22">
												<g>
													<defs>
														<rect id="SVGID_51_" x="87.3" y="65.4" width="16.2" height="28.3"/>
													</defs>
													<clipPath id="SVGID_52_">
														<use xlink:href="#SVGID_51_"  style="overflow:visible;"/>
													</clipPath>
													<path class="st23" d="M92.7,93.8l-5.3,0h0c1,0,1.9-0.3,2.7-0.7l5.3,0C94.6,93.5,93.7,93.8,92.7,93.8
														C92.7,93.8,92.7,93.8,92.7,93.8"/>
													<path class="st24" d="M95.4,93.1l-5.3,0c0.8-0.5,1.6-1.1,2.3-2l5.3,0C97,91.9,96.3,92.6,95.4,93.1"/>
													<path class="st25" d="M97.7,91.1l-5.3,0c4.4-5.2,6.2-17,5.7-25.6l5.3,0C103.9,74.1,102.1,85.9,97.7,91.1"/>
												</g>
											</g>
										</g>
									</g>
								</g>
								<g class="st20">
									<g>
										<defs>
											<rect id="SVGID_53_" x="85" y="40.6" width="18.5" height="24.9"/>
										</defs>
										<clipPath id="SVGID_54_">
											<use xlink:href="#SVGID_53_"  style="overflow:visible;"/>
										</clipPath>
										<g class="st26">
											<defs>
												<path id="SVGID_55_" d="M103.5,65.5l-5.3,0C97.5,52.4,85.6,41.2,85,40.6l5.3,0C90.9,41.2,102.8,52.4,103.5,65.5"/>
											</defs>
											<clipPath id="SVGID_56_">
												<use xlink:href="#SVGID_55_"  style="overflow:visible;"/>
											</clipPath>
											<g class="st27">
												<g>
													<defs>
														<rect id="SVGID_57_" x="85" y="40.6" width="18.5" height="24.9"/>
													</defs>
													<clipPath id="SVGID_58_">
														<use xlink:href="#SVGID_57_"  style="overflow:visible;"/>
													</clipPath>
													<path class="st28" d="M103.5,65.5l-5.3,0C97.5,52.4,85.6,41.2,85,40.6l5.3,0C90.9,41.2,102.8,52.4,103.5,65.5"/>
												</g>
											</g>
										</g>
									</g>
								</g>
								<polygon class="st29" points="84.5,109 79.2,109 72.4,96.7 77.8,96.7 								"/>
								<polygon class="st30" points="74.3,81.6 69,81.6 72.4,81.4 77.8,81.4 								"/>
								<g class="st20">
									<g>
										<defs>
											<rect id="SVGID_59_" x="58.3" y="108.8" width="12.7" height="0.2"/>
										</defs>
										<clipPath id="SVGID_60_">
											<use xlink:href="#SVGID_59_"  style="overflow:visible;"/>
										</clipPath>
										<g class="st31">
											<defs>
												<path id="SVGID_61_" d="M58.3,108.8c1.8,0,3.6,0,5.3,0c3.7,0,5.7,0.1,6.6,0.1c0.6,0,0.8,0,0.8,0l-5.3,0c0,0-0.2,0-0.8,0
													C63.9,108.9,61.9,108.8,58.3,108.8"/>
											</defs>
											<clipPath id="SVGID_62_">
												<use xlink:href="#SVGID_61_"  style="overflow:visible;"/>
											</clipPath>
											<g class="st32">
												<g>
													<defs>
														<rect id="SVGID_63_" x="58.3" y="108.8" width="12.7" height="0.2"/>
													</defs>
													<clipPath id="SVGID_64_">
														<use xlink:href="#SVGID_63_"  style="overflow:visible;"/>
													</clipPath>
													<path class="st33" d="M71,109l-5.3,0c0,0-0.2,0-0.8,0c-1,0-3-0.1-6.6-0.1l5.3,0c3.7,0,5.7,0.1,6.6,0.1
														C70.8,109,71,109,71,109"/>
												</g>
											</g>
										</g>
									</g>
								</g>
								<g class="st20">
									<g>
										<defs>
											<rect id="SVGID_65_" x="57.6" y="81.6" width="16.8" height="12.2"/>
										</defs>
										<clipPath id="SVGID_66_">
											<use xlink:href="#SVGID_65_"  style="overflow:visible;"/>
										</clipPath>
										<g class="st34">
											<defs>
												<path id="SVGID_67_" d="M62.9,93.7l-5.3,0c7.3,0,11.2-11.5,11.4-12.1l5.3,0C74.1,82.2,70.3,93.7,62.9,93.7"/>
											</defs>
											<clipPath id="SVGID_68_">
												<use xlink:href="#SVGID_67_"  style="overflow:visible;"/>
											</clipPath>
											<g class="st35">
												<g>
													<defs>
														<rect id="SVGID_69_" x="57.6" y="81.6" width="16.8" height="12.2"/>
													</defs>
													<clipPath id="SVGID_70_">
														<use xlink:href="#SVGID_69_"  style="overflow:visible;"/>
													</clipPath>
													<path class="st36" d="M62.9,93.7l-5.3,0c1.3,0,2.5-0.4,3.6-1l5.3,0C65.5,93.4,64.2,93.7,62.9,93.7"/>
													<path class="st37" d="M66.5,92.8l-5.3,0c1.3-0.7,2.4-1.7,3.3-2.9l5.3,0C68.9,91,67.8,92,66.5,92.8"/>
													<path class="st38" d="M69.9,89.9l-5.3,0c2.8-3.4,4.3-7.9,4.5-8.2l5.3,0C74.2,82,72.7,86.5,69.9,89.9"/>
												</g>
											</g>
										</g>
									</g>
								</g>
								<g class="st20">
									<g>
										<defs>
											<rect id="SVGID_71_" x="57.5" y="93.7" width="5.4" height="0"/>
										</defs>
										<clipPath id="SVGID_72_">
											<use xlink:href="#SVGID_71_"  style="overflow:visible;"/>
										</clipPath>
										<g class="st39">
											<defs>
												<path id="SVGID_73_" d="M62.9,93.7c-1.8,0-3.6,0-5.3,0h0L62.9,93.7L62.9,93.7z"/>
											</defs>
											<clipPath id="SVGID_74_">
												<use xlink:href="#SVGID_73_"  style="overflow:visible;"/>
											</clipPath>
											<g class="st40">
												<g>
													<defs>
														<rect id="SVGID_75_" x="57.5" y="93.7" width="5.4" height="0"/>
													</defs>
													<clipPath id="SVGID_76_">
														<use xlink:href="#SVGID_75_"  style="overflow:visible;"/>
													</clipPath>
													<polygon class="st41" points="62.9,93.7 57.5,93.7 57.6,93.7 62.9,93.7 													"/>
												</g>
											</g>
										</g>
									</g>
								</g>
								<g class="st20">
									<g>
										<defs>
											<rect id="SVGID_77_" x="37.1" y="40.5" width="28.5" height="34"/>
										</defs>
										<clipPath id="SVGID_78_">
											<use xlink:href="#SVGID_77_"  style="overflow:visible;"/>
										</clipPath>
										<g class="st42">
											<defs>
												<path id="SVGID_79_" d="M42.4,74.6l-5.3,0c4-18.4,22.2-33.2,23.2-34l5.3,0C64.7,41.4,46.4,56.2,42.4,74.6"/>
											</defs>
											<clipPath id="SVGID_80_">
												<use xlink:href="#SVGID_79_"  style="overflow:visible;"/>
											</clipPath>
											<g class="st43">
												<g>
													<defs>
														<rect id="SVGID_81_" x="37.1" y="40.5" width="28.5" height="34"/>
													</defs>
													<clipPath id="SVGID_82_">
														<use xlink:href="#SVGID_81_"  style="overflow:visible;"/>
													</clipPath>
													<path class="st44" d="M42.4,74.6l-5.3,0c1.9-8.9,7.2-17,12.2-23l5.3,0C49.6,57.6,44.4,65.7,42.4,74.6"/>
													<path class="st45" d="M54.7,51.5l-5.3,0c5.4-6.4,10.5-10.6,11-11l5.3,0C65.1,41,60,45.1,54.7,51.5"/>
												</g>
											</g>
										</g>
									</g>
								</g>
								<path class="st46" d="M113.3,74.7c3.7,17.7-10.3,34.2-18.4,34.2c-8.2,0-10.2,0.2-10.4,0.2l-6.7-12.3L71,109c0,0-0.2,0-0.8,0
									c-1.2-0.1-4-0.1-9.6-0.2c-0.1,0-0.2,0-0.3,0c-8.2-0.4-21.7-16.8-18-34.2c4-18.4,22.2-33.2,23.2-34
									C65,41.2,53,52.3,52.3,65.4c-0.6,11.3,2.6,28,10.4,28.3c0.1,0,0.2,0,0.3,0c7.3,0,11.2-11.5,11.4-12.1l3.4-0.2l3.6,0.2
									c0.2,0.6,3.9,11.8,11,12.2c0.1,0,0.2,0,0.3,0c8,0,11.3-16.9,10.8-28.3c-0.6-13.1-12.5-24.3-13.2-24.9
									C91.3,41.4,109.4,56.3,113.3,74.7"/>
								<g class="st20">
									<g>
										<defs>
											<rect id="SVGID_83_" x="36.5" y="74.5" width="24.2" height="34.3"/>
										</defs>
										<clipPath id="SVGID_84_">
											<use xlink:href="#SVGID_83_"  style="overflow:visible;"/>
										</clipPath>
										<g class="st47">
											<defs>
												<path id="SVGID_85_" d="M60.6,108.8c-1.8,0-3.6,0-5.3,0c-0.1,0-0.2,0-0.2,0c-8.2-0.4-21.7-16.8-18-34.2l5.3,0
													c-3.8,17.4,9.8,33.9,18,34.2C60.5,108.8,60.6,108.8,60.6,108.8"/>
											</defs>
											<clipPath id="SVGID_86_">
												<use xlink:href="#SVGID_85_"  style="overflow:visible;"/>
											</clipPath>
											<g class="st48">
												<g>
													<defs>
														<rect id="SVGID_87_" x="36.5" y="74.5" width="24.2" height="34.3"/>
													</defs>
													<clipPath id="SVGID_88_">
														<use xlink:href="#SVGID_87_"  style="overflow:visible;"/>
													</clipPath>
													<path class="st49" d="M60.6,108.8l-5.3,0c-0.1,0-0.2,0-0.2,0c-8.2-0.4-21.7-16.8-18-34.2l5.3,0
														c-3.8,17.4,9.8,33.9,18,34.2C60.5,108.8,60.6,108.8,60.6,108.8"/>
												</g>
											</g>
										</g>
									</g>
								</g>
							</g>
						</g>
					</g>
				</g>
			</g>
			<g class="st1">
				<defs>
					<rect id="SVGID_89_" x="-8.1" y="-38" width="165.5" height="234.1"/>
				</defs>
				<clipPath id="SVGID_90_">
					<use xlink:href="#SVGID_89_"  style="overflow:visible;"/>
				</clipPath>
				<g class="st50">
					<g>
						<defs>
							<rect id="SVGID_91_" x="31.7" y="35.7" width="87.3" height="77.6"/>
						</defs>
						<clipPath id="SVGID_92_">
							<use xlink:href="#SVGID_91_"  style="overflow:visible;"/>
						</clipPath>
						<g class="st51">
							<defs>
								<rect id="SVGID_93_" x="31.7" y="35.7" width="87.3" height="77.6"/>
							</defs>
							<clipPath id="SVGID_94_">
								<use xlink:href="#SVGID_93_"  style="overflow:visible;"/>
							</clipPath>
							<g style="clip-path:url(#SVGID_94_);">
								
									<image style="overflow:visible;" width="1308" height="1163" xlink:href="5311E862.png"  transform="matrix(6.673842e-02 0 0 6.673841e-02 31.6609 35.7112)">
								</image>
							</g>
						</g>
					</g>
				</g>
				<path class="st52" d="M75.2,81.1l3.9,0.2c0,0,4.3,12.1,12.3,12.2c8.6,0,12.3-16.9,11.7-28.3c-0.7-13.1-14.3-24.9-14.3-24.9
					s20.7,15.7,24.9,34.1c4,17.7-11.1,34.2-20,34.2c-8.8,0-11.2,0.2-11.2,0.2l-7.3-12.3 M75.2,81.1l-3.7,0.2c0,0-4.4,12.1-12.4,12.1
					c-8.6,0-12.2-17-11.5-28.4C48.4,51.9,62,40.2,62,40.2s-20.8,15.6-25.1,34c-4.1,17.6,10.9,34.2,19.8,34.3
					c8.8,0,11.2,0.2,11.2,0.2l7.3-12.3"/>
				<path class="st53" d="M75.2,81.1l3.9,0.2c0,0,4.3,12.1,12.3,12.2c8.6,0,12.3-16.9,11.7-28.3c-0.7-13.1-14.3-24.9-14.3-24.9
					s20.7,15.7,24.9,34.1c4,17.7-11.1,34.2-20,34.2c-8.8,0-11.2,0.2-11.2,0.2l-7.3-12.3 M75.2,81.1l-3.7,0.2c0,0-4.4,12.1-12.4,12.1
					c-8.6,0-12.2-17-11.5-28.4C48.4,51.9,62,40.2,62,40.2s-20.8,15.6-25.1,34c-4.1,17.6,10.9,34.2,19.8,34.3
					c8.8,0,11.2,0.2,11.2,0.2l7.3-12.3"/>
			</g>
			<g class="st1">
				<defs>
					<rect id="SVGID_95_" x="-8.1" y="-38" width="165.5" height="234.1"/>
				</defs>
				<clipPath id="SVGID_96_">
					<use xlink:href="#SVGID_95_"  style="overflow:visible;"/>
				</clipPath>
				<g class="st54">
					<g>
						<defs>
							<rect id="SVGID_97_" x="3.7" y="63.2" width="142.4" height="23.7"/>
						</defs>
						<clipPath id="SVGID_98_">
							<use xlink:href="#SVGID_97_"  style="overflow:visible;"/>
						</clipPath>
						<path class="st55" d="M146.1,84c0,1.6-1.3,2.9-2.9,2.9H6.6c-1.6,0-2.9-1.3-2.9-2.9V66.1c0-1.6,1.3-2.9,2.9-2.9h136.6
							c1.6,0,2.9,1.3,2.9,2.9V84z"/>
					</g>
				</g>
				<path class="st56" d="M146.1,84c0,1.6-1.3,2.9-2.9,2.9H6.6c-1.6,0-2.9-1.3-2.9-2.9V66.1c0-1.6,1.3-2.9,2.9-2.9h136.6
					c1.6,0,2.9,1.3,2.9,2.9V84z"/>
			</g>
			<g class="st1">
				<defs>
					<rect id="SVGID_99_" x="-8.1" y="-38" width="165.5" height="234.1"/>
				</defs>
				<clipPath id="SVGID_100_">
					<use xlink:href="#SVGID_99_"  style="overflow:visible;"/>
				</clipPath>
			</g>
			<g class="st1">
				<defs>
					<rect id="SVGID_101_" x="-8.1" y="-38" width="165.5" height="234.1"/>
				</defs>
				<clipPath id="SVGID_102_">
					<use xlink:href="#SVGID_101_"  style="overflow:visible;"/>
				</clipPath>
			</g>
			<g class="st1">
				<defs>
					<rect id="SVGID_103_" x="-8.1" y="-38" width="165.5" height="234.1"/>
				</defs>
				<clipPath id="SVGID_104_">
					<use xlink:href="#SVGID_103_"  style="overflow:visible;"/>
				</clipPath>
				<g class="st57">
					<g>
						<defs>
							<rect id="SVGID_105_" x="4.2" y="61.3" width="142.5" height="31.2"/>
						</defs>
						<clipPath id="SVGID_106_">
							<use xlink:href="#SVGID_105_"  style="overflow:visible;"/>
						</clipPath>
						<g class="st58">
							<defs>
								<rect id="SVGID_107_" x="4.2" y="61.3" width="142.5" height="31.2"/>
							</defs>
							<clipPath id="SVGID_108_">
								<use xlink:href="#SVGID_107_"  style="overflow:visible;"/>
							</clipPath>
							<g style="clip-path:url(#SVGID_108_);">
								
									<image style="overflow:visible;" width="2135" height="468" xlink:href="5311E865.png"  transform="matrix(6.673840e-02 0 0 6.673841e-02 4.2068 61.3312)">
								</image>
							</g>
						</g>
					</g>
				</g>
			</g>
			<g class="st1">
				<text transform="matrix(1 0 0 1 6.2471 82.791)"><tspan x="0" y="0" class="st59 st60 st61 st62">WW</tspan><tspan x="25.7" y="0" class="st59 st60 st61">W</tspan></text>
			</g>
			<g class="st1">
				<defs>
					<rect id="SVGID_109_" x="-8.1" y="-38" width="165.5" height="234.1"/>
				</defs>
				<clipPath id="SVGID_110_">
					<use xlink:href="#SVGID_109_"  style="overflow:visible;"/>
				</clipPath>
				<path class="st63" d="M8.6,81.7c0.1,0.6,0.1,0.9,0.1,1c0,0.1,0.1,0.1,0.2,0.1h0.8c0.1,0,0.2,0,0.3-0.1c0,0,0.1-0.4,0.2-1.1
					l1.3-12.5l1.4,12.4l0.1,1.2c0.1,0.1,0.1,0.1,0.2,0.1h0.8c0.1,0,0.2,0,0.2-0.1c0.1-0.1,0.1-0.5,0.2-1.1l1.4-13.4
					c0-0.4,0.2-0.7,0.4-1c0.1-0.2,0.3-0.3,0.5-0.3c0,0,0.1,0,0.1,0c0,0,0-0.1,0-0.1c0,0,0-0.1-0.1-0.1h-1.8
					c-0.1,0.1-0.1,0.1-0.1,0.1c0,0.1,0,0.1,0.1,0.1l0.3,0c0.1,0,0.2,0.1,0.3,0.3c0.1,0.1,0.1,0.3,0.1,0.6c0,0.1,0,0.2,0,0.3
					l-1.1,9.7l-1-10.9H14c0.1,0,0.1-0.1,0.1-0.1s0-0.1-0.1-0.1h-3.4c0,0-0.1,0-0.1,0c0,0,0,0.1,0,0.1s0,0.1,0,0.1c0,0,0.1,0,0.1,0
					h0.5l0.1,1l-1.1,9.9l-1-10.9h0.6c0,0,0.1,0,0.1,0c0,0,0-0.1,0-0.1s0-0.1,0-0.1c0,0-0.1,0-0.1,0H6.5c-0.1,0-0.1,0.1-0.1,0.1
					s0,0.1,0.1,0.1H7L8.6,81.7z"/>
				<path class="st63" d="M21.5,81.7c0.1,0.6,0.1,0.9,0.1,1c0,0.1,0.1,0.1,0.2,0.1h0.8c0.1,0,0.2,0,0.3-0.1c0,0,0.1-0.4,0.2-1.1
					l1.3-12.5l1.4,12.4l0.1,1.2c0.1,0.1,0.1,0.1,0.2,0.1h0.8c0.1,0,0.2,0,0.2-0.1c0.1-0.1,0.1-0.5,0.2-1.1l1.4-13.4
					c0-0.4,0.2-0.7,0.4-1c0.1-0.2,0.3-0.3,0.5-0.3c0,0,0.1,0,0.1,0c0,0,0-0.1,0-0.1c0,0,0-0.1-0.1-0.1h-1.8
					c-0.1,0.1-0.1,0.1-0.1,0.1c0,0.1,0,0.1,0.1,0.1l0.3,0c0.1,0,0.2,0.1,0.3,0.3c0.1,0.1,0.1,0.3,0.1,0.6c0,0.1,0,0.2,0,0.3
					l-1.1,9.7l-1-10.9h0.6c0.1,0,0.1-0.1,0.1-0.1s0-0.1-0.1-0.1h-3.4c0,0-0.1,0-0.1,0c0,0,0,0.1,0,0.1s0,0.1,0,0.1c0,0,0.1,0,0.1,0
					H24l0.1,1l-1.1,9.9l-1-10.9h0.6c0,0,0.1,0,0.1,0c0,0,0-0.1,0-0.1s0-0.1,0-0.1c0,0-0.1,0-0.1,0h-3.3c-0.1,0-0.1,0.1-0.1,0.1
					s0,0.1,0.1,0.1h0.5L21.5,81.7z"/>
				<path class="st63" d="M34.3,81.7c0.1,0.6,0.1,0.9,0.1,1c0,0.1,0.1,0.1,0.2,0.1h0.8c0.1,0,0.2,0,0.3-0.1c0,0,0.1-0.4,0.2-1.1
					l1.3-12.5l1.4,12.4l0.1,1.2c0.1,0.1,0.1,0.1,0.2,0.1h0.8c0.1,0,0.2,0,0.2-0.1c0.1-0.1,0.1-0.5,0.2-1.1l1.4-13.4
					c0-0.4,0.2-0.7,0.4-1c0.1-0.2,0.3-0.3,0.5-0.3c0,0,0.1,0,0.1,0c0,0,0-0.1,0-0.1c0,0,0-0.1-0.1-0.1h-1.8
					c-0.1,0.1-0.1,0.1-0.1,0.1c0,0.1,0,0.1,0.1,0.1l0.3,0c0.1,0,0.2,0.1,0.3,0.3c0.1,0.1,0.1,0.3,0.1,0.6c0,0.1,0,0.2,0,0.3
					l-1.1,9.7l-1-10.9h0.6c0.1,0,0.1-0.1,0.1-0.1s0-0.1-0.1-0.1h-3.4c0,0-0.1,0-0.1,0c0,0,0,0.1,0,0.1s0,0.1,0,0.1c0,0,0.1,0,0.1,0
					h0.5l0.1,1L36,77.7l-1-10.9h0.6c0,0,0.1,0,0.1,0c0,0,0-0.1,0-0.1s0-0.1,0-0.1c0,0-0.1,0-0.1,0h-3.3c-0.1,0-0.1,0.1-0.1,0.1
					s0,0.1,0.1,0.1h0.5L34.3,81.7z"/>
			</g>
			<g class="st1">
				<text transform="matrix(1 0 0 1 44.8359 82.791)" class="st59 st64 st61">.</text>
			</g>
			<g class="st1">
				<defs>
					<rect id="SVGID_111_" x="-8.1" y="-38" width="165.5" height="234.1"/>
				</defs>
				<clipPath id="SVGID_112_">
					<use xlink:href="#SVGID_111_"  style="overflow:visible;"/>
				</clipPath>
				<path class="st65" d="M46.4,81.9c0,0.3,0.1,0.6,0.4,0.9c0.2,0.2,0.5,0.4,0.8,0.4c0.3,0,0.6-0.1,0.8-0.4c0.2-0.2,0.4-0.5,0.4-0.9
					c0-0.3-0.1-0.6-0.4-0.8c-0.2-0.2-0.5-0.4-0.8-0.4c-0.3,0-0.6,0.1-0.8,0.4C46.5,81.3,46.4,81.6,46.4,81.9z"/>
			</g>
			<g class="st1">
				<text transform="matrix(1 0 0 1 52.5596 82.791)"><tspan x="0" y="0" class="st59 st60 st61 st62">W</tspan><tspan x="12.9" y="0" class="st59 st60 st61 st62">EBB</tspan><tspan x="40.5" y="0" class="st59 st60 st61 st62">IG</tspan><tspan x="56.1" y="0" class="st59 st60 st61">T</tspan></text>
			</g>
			<g class="st1">
				<defs>
					<rect id="SVGID_113_" x="-8.1" y="-38" width="165.5" height="234.1"/>
				</defs>
				<clipPath id="SVGID_114_">
					<use xlink:href="#SVGID_113_"  style="overflow:visible;"/>
				</clipPath>
				<path class="st66" d="M54.9,81.7c0.1,0.6,0.1,0.9,0.1,1c0,0.1,0.1,0.1,0.2,0.1H56c0.1,0,0.2,0,0.3-0.1c0,0,0.1-0.4,0.2-1.1
					l1.3-12.5l1.4,12.4l0.1,1.2c0.1,0.1,0.1,0.1,0.2,0.1h0.8c0.1,0,0.2,0,0.2-0.1c0.1-0.1,0.1-0.5,0.2-1.1L62,68.2
					c0-0.4,0.2-0.7,0.4-1c0.1-0.2,0.3-0.3,0.5-0.3c0,0,0.1,0,0.1,0c0,0,0-0.1,0-0.1c0,0,0-0.1-0.1-0.1h-1.8C61,66.6,61,66.7,61,66.7
					c0,0.1,0,0.1,0.1,0.1l0.3,0c0.1,0,0.2,0.1,0.3,0.3c0.1,0.1,0.1,0.3,0.1,0.6c0,0.1,0,0.2,0,0.3l-1.1,9.7l-1-10.9h0.6
					c0.1,0,0.1-0.1,0.1-0.1s0-0.1-0.1-0.1H57c0,0-0.1,0-0.1,0c0,0,0,0.1,0,0.1s0,0.1,0,0.1c0,0,0.1,0,0.1,0h0.5l0.1,1l-1.1,9.9
					l-1-10.9h0.6c0,0,0.1,0,0.1,0c0,0,0-0.1,0-0.1s0-0.1,0-0.1c0,0-0.1,0-0.1,0h-3.3c-0.1,0-0.1,0.1-0.1,0.1s0,0.1,0.1,0.1h0.5
					L54.9,81.7z"/>
				<path class="st66" d="M66.3,82.5h-0.7c-0.1,0-0.1,0-0.1,0c0,0,0,0.1,0,0.1c0,0,0,0.1,0,0.1c0,0,0.1,0,0.1,0h6.1v-6.7
					c0,0,0-0.1,0-0.1c0,0-0.1,0-0.1,0c0,0-0.1,0-0.1,0.1v0.7c0,0.6-0.1,1.4-0.3,2.4c-0.1,0.6-0.3,1.2-0.6,1.8
					c-0.3,0.5-0.5,0.9-0.8,1.1c-0.3,0.2-0.6,0.3-0.9,0.3h-0.3V75c0-0.1,0-0.2,0.1-0.2c0,0,0.1-0.1,0.2-0.1c0.3,0,0.5,0.2,0.7,0.5
					c0.4,0.6,0.6,1.5,0.6,2.5v0.8c0,0,0,0.1,0,0.1c0,0,0.1,0,0.1,0c0,0,0.1,0,0.1,0c0,0,0-0.1,0-0.1v-8c0,0,0-0.1,0-0.1
					c0,0-0.1,0-0.1,0c0,0-0.1,0-0.1,0c0,0,0,0.1,0,0.1v0.8c0,1.1-0.2,1.9-0.5,2.4c-0.3,0.4-0.6,0.6-1,0.6v-7.6h0.7
					c0.4,0,0.6,0.1,0.8,0.2c0.3,0.3,0.6,0.9,0.9,1.9c0.3,1,0.5,2.1,0.6,3.3c0,0.2,0,0.3,0,0.3c0,0,0,0,0.1,0c0,0,0.1,0,0.1-0.1v-6
					h-6.1c-0.1,0-0.1,0.1-0.1,0.1c0,0,0,0.1,0.1,0.1h0.7V82.5z"/>
				<path class="st66" d="M78.1,74.5c0.2,0,0.4,0.1,0.5,0.2c0.1,0.1,0.2,0.3,0.2,0.6v6.3c0,0.3-0.1,0.5-0.3,0.7
					c-0.2,0.2-0.4,0.3-0.7,0.3h-0.3v-8H78.1z M77.8,66.9c0.4,0,0.6,0.1,0.8,0.2c0.1,0.1,0.2,0.4,0.2,0.7v5.6c0,0.3-0.1,0.5-0.2,0.6
					c-0.1,0.1-0.3,0.2-0.6,0.2h-0.6v-7.4H77.8z M74.5,82.5c-0.1,0-0.1,0.1-0.1,0.1c0,0,0,0.1,0.1,0.1h3.1c0.7,0,1.4-0.2,1.9-0.5
					c0.5-0.4,0.9-0.8,1.1-1.3c0.3-0.8,0.5-1.6,0.5-2.6c0-0.8-0.1-1.4-0.3-1.9c-0.2-0.5-0.6-1-1-1.3c-0.3-0.2-0.7-0.4-1.3-0.7
					c0.6-0.2,1-0.4,1.3-0.7c0.4-0.4,0.8-0.8,1-1.4c0.2-0.5,0.3-1.2,0.3-1.9c0-1.2-0.3-2.2-0.9-2.8c-0.6-0.7-1.4-1-2.4-1h-3.2
					c-0.1,0.1-0.1,0.1-0.1,0.1c0,0,0,0.1,0.1,0.1h0.7v15.7H74.5z"/>
				<path class="st66" d="M87.5,74.5c0.2,0,0.4,0.1,0.5,0.2c0.1,0.1,0.2,0.3,0.2,0.6v6.3c0,0.3-0.1,0.5-0.3,0.7
					c-0.2,0.2-0.4,0.3-0.7,0.3h-0.3v-8H87.5z M87.2,66.9c0.4,0,0.6,0.1,0.8,0.2c0.1,0.1,0.2,0.4,0.2,0.7v5.6c0,0.3-0.1,0.5-0.2,0.6
					c-0.1,0.1-0.3,0.2-0.6,0.2h-0.6v-7.4H87.2z M83.8,82.5c-0.1,0-0.1,0.1-0.1,0.1c0,0,0,0.1,0.1,0.1h3.1c0.7,0,1.4-0.2,1.9-0.5
					c0.5-0.4,0.9-0.8,1.1-1.3c0.3-0.8,0.5-1.6,0.5-2.6c0-0.8-0.1-1.4-0.3-1.9c-0.2-0.5-0.6-1-1-1.3c-0.3-0.2-0.7-0.4-1.3-0.7
					c0.6-0.2,1-0.4,1.3-0.7c0.4-0.4,0.8-0.8,1-1.4c0.2-0.5,0.3-1.2,0.3-1.9c0-1.2-0.3-2.2-0.9-2.8c-0.6-0.7-1.4-1-2.4-1h-3.2
					c-0.1,0.1-0.1,0.1-0.1,0.1c0,0,0,0.1,0.1,0.1h0.7v15.7H83.8z"/>
				<path class="st66" d="M94,82.5h-0.7c-0.1,0-0.1,0.1-0.1,0.1c0,0,0,0.1,0.1,0.1h3.6c0.1,0,0.1-0.1,0.1-0.1c0,0,0-0.1-0.1-0.1
					h-0.6V66.9h0.6c0,0,0.1,0,0.1,0c0,0,0-0.1,0-0.1c0,0,0-0.1,0-0.1c0,0-0.1,0-0.1,0h-3.5c0,0-0.1,0-0.1,0c0,0,0,0.1,0,0.1
					c0,0,0,0.1,0,0.1c0,0,0.1,0,0.1,0H94V82.5z"/>
				<path class="st66" d="M102.8,66.4c-0.9,0-1.6,0.6-2.1,1.8c-0.5,1.2-0.8,2.7-0.8,4.6v4c0,1.9,0.3,3.4,0.8,4.5
					c0.5,1.1,1.2,1.6,2.2,1.6c0.4,0,0.7-0.1,0.9-0.3c0.3-0.2,0.6-0.7,1-1.4l0.6,1.5c0,0.1,0.1,0.1,0.1,0.1c0,0,0.1,0,0.1,0
					c0,0,0.1,0,0.1,0c0,0,0-0.1,0-0.1v-7.2h0.5c0,0,0.1,0,0.1,0c0,0,0-0.1,0-0.1c0,0,0-0.1,0-0.1c0,0-0.1,0-0.1,0H103
					c0,0-0.1,0-0.1,0c0,0,0,0.1,0,0.1c0,0,0,0.1,0,0.1c0,0,0.1,0,0.1,0h0.6v6c0,0.4-0.1,0.7-0.2,0.9c-0.1,0.2-0.3,0.2-0.5,0.2
					c-0.2,0-0.4-0.1-0.5-0.2c-0.1-0.1-0.2-0.3-0.2-0.5V68c0-0.5,0.1-0.8,0.2-1c0.1-0.2,0.3-0.3,0.5-0.3c0.4,0,0.7,0.2,1,0.7
					c0.5,0.8,0.9,2.5,1.1,5.1c0,0.4,0.1,0.5,0.1,0.6c0,0,0,0,0.1,0c0,0,0.1,0,0.1,0c0,0,0-0.1,0-0.1v-6.4c0,0,0-0.1,0-0.1
					c0,0,0,0-0.1,0c-0.1,0-0.1,0-0.2,0.1l-0.7,1C103.9,66.8,103.4,66.4,102.8,66.4z"/>
				<path class="st66" d="M111.3,82.5h-0.9c0,0-0.1,0-0.1,0c0,0,0,0.1,0,0.1c0,0,0,0.1,0,0.1c0,0,0.1,0,0.1,0h4
					c0.1,0,0.1-0.1,0.1-0.1c0,0,0-0.1-0.1-0.1h-0.8V66.9h0.3c0.1,0,0.2,0.1,0.3,0.2c0.1,0.1,0.3,0.4,0.4,0.9
					c0.3,0.8,0.5,1.7,0.7,2.8c0.2,1.1,0.3,1.9,0.3,2.3v0.4c0,0.1,0,0.1,0,0.1s0.1,0,0.1,0c0,0,0.1,0,0.1,0c0,0,0-0.1,0-0.1v-6.8h-7
					v6.8c0,0.1,0,0.1,0.1,0.1c0,0,0.1,0,0.1,0c0,0,0.1,0,0.1,0c0,0,0-0.1,0-0.1v-0.2c0-0.3,0.1-1,0.3-2.2c0.2-1.2,0.4-2.1,0.7-3
					c0.2-0.5,0.3-0.8,0.5-1c0.1-0.1,0.3-0.2,0.4-0.2h0.2V82.5z"/>
			</g>
			<g class="st1">
				<text transform="matrix(1 0 0 1 118.5088 82.791)" class="st59 st64 st61">.</text>
			</g>
			<g class="st1">
				<defs>
					<rect id="SVGID_115_" x="-8.1" y="-38" width="165.5" height="234.1"/>
				</defs>
				<clipPath id="SVGID_116_">
					<use xlink:href="#SVGID_115_"  style="overflow:visible;"/>
				</clipPath>
				<path class="st67" d="M120.1,81.9c0,0.3,0.1,0.6,0.4,0.9c0.2,0.2,0.5,0.4,0.8,0.4c0.3,0,0.6-0.1,0.8-0.4
					c0.2-0.2,0.4-0.5,0.4-0.9c0-0.3-0.1-0.6-0.4-0.8c-0.2-0.2-0.5-0.4-0.8-0.4c-0.3,0-0.6,0.1-0.8,0.4
					C120.2,81.3,120.1,81.6,120.1,81.9z"/>
			</g>
			<g class="st1">
				<text transform="matrix(1 0 0 1 126.2324 82.791)"><tspan x="0" y="0" class="st59 st60 st61 st62">S</tspan><tspan x="8.7" y="0" class="st59 st60 st61">E</tspan></text>
			</g>
			<g class="st1">
				<defs>
					<rect id="SVGID_117_" x="-8.1" y="-38" width="165.5" height="234.1"/>
				</defs>
				<clipPath id="SVGID_118_">
					<use xlink:href="#SVGID_117_"  style="overflow:visible;"/>
				</clipPath>
				<path class="st68" d="M129.7,83c0.7,0,1.3-0.3,1.8-0.9c0.5-0.6,0.8-1.4,0.8-2.5c0-0.6-0.1-1.3-0.3-2.1c-0.2-0.8-0.7-1.8-1.3-3.1
					l-0.9-1.9c-1-2-1.5-3.4-1.5-4.2c0-0.5,0.1-0.8,0.3-1.1c0.2-0.2,0.4-0.4,0.7-0.4c0.4,0,0.7,0.2,1,0.6c0.5,0.7,0.9,2.2,1.2,4.4
					c0.1,0.5,0.1,0.7,0.1,0.8c0,0,0.1,0.1,0.1,0.1c0,0,0.1,0,0.1,0c0-0.1,0.1-0.1,0.1-0.2v-5.9c0-0.1,0-0.1,0-0.2c0,0,0,0,0,0
					c0,0-0.1,0.1-0.2,0.2c-0.3,0.3-0.7,0.5-1,0.7c-0.4-0.6-0.9-0.9-1.5-0.9c-0.6,0-1.2,0.3-1.7,0.9c-0.5,0.6-0.7,1.4-0.7,2.5
					c0,0.5,0.1,1.1,0.3,1.6c0.2,0.6,0.6,1.5,1.2,2.7c1,2,1.7,3.5,2,4.4c0.2,0.7,0.3,1.3,0.3,2c0,0.6-0.1,1.1-0.4,1.4
					c-0.3,0.3-0.5,0.5-0.9,0.5c-0.3,0-0.6-0.1-0.8-0.4c-0.5-0.5-0.8-1.3-1.1-2.5c-0.3-1.1-0.4-2.2-0.4-3.1v-0.5c0-0.1,0-0.2-0.1-0.2
					c0,0-0.1-0.1-0.1-0.1c0,0,0,0-0.1,0c0,0,0,0,0,0.1v6.8c0,0.1,0,0.1,0,0.1c0,0,0,0,0.1,0c0.1,0,0.2-0.1,0.5-0.4
					c0.3-0.3,0.5-0.5,0.7-0.6C128.4,82.6,129,83,129.7,83z"/>
				<path class="st68" d="M135.8,82.5h-0.7c-0.1,0-0.1,0-0.1,0c0,0,0,0.1,0,0.1c0,0,0,0.1,0,0.1c0,0,0.1,0,0.1,0h6.1v-6.7
					c0,0,0-0.1,0-0.1c0,0-0.1,0-0.1,0c0,0-0.1,0-0.1,0.1v0.7c0,0.6-0.1,1.4-0.3,2.4c-0.1,0.6-0.3,1.2-0.6,1.8
					c-0.3,0.5-0.5,0.9-0.8,1.1c-0.3,0.2-0.6,0.3-0.9,0.3H138V75c0-0.1,0-0.2,0.1-0.2c0,0,0.1-0.1,0.2-0.1c0.3,0,0.5,0.2,0.7,0.5
					c0.4,0.6,0.6,1.5,0.6,2.5v0.8c0,0,0,0.1,0,0.1c0,0,0.1,0,0.1,0c0,0,0.1,0,0.1,0c0,0,0-0.1,0-0.1v-8c0,0,0-0.1,0-0.1
					c0,0-0.1,0-0.1,0c0,0-0.1,0-0.1,0c0,0,0,0.1,0,0.1v0.8c0,1.1-0.2,1.9-0.5,2.4c-0.3,0.4-0.6,0.6-1,0.6v-7.6h0.7
					c0.4,0,0.6,0.1,0.8,0.2c0.3,0.3,0.6,0.9,0.9,1.9c0.3,1,0.5,2.1,0.6,3.3c0,0.2,0,0.3,0,0.3c0,0,0,0,0.1,0c0,0,0.1,0,0.1-0.1v-6
					h-6.1c-0.1,0-0.1,0.1-0.1,0.1c0,0,0,0.1,0.1,0.1h0.7V82.5z"/>
			</g>
		</g>
	</g>
</g>
</svg>
